<svg width="24" height="24" viewBox="0 0 24 24" fill="none" xmlns="http://www.w3.org/2000/svg">
<rect width="24" height="24" rx="12" fill="black" fill-opacity="0.5"/>
<path d="M10.6929 17.5023C10.4252 17.5023 10.2322 17.384 10.0454 17.1412L6.81433 13.0261C6.69604 12.8767 6.63379 12.7148 6.63379 12.5717C6.63379 12.2292 6.87659 11.9865 7.23145 11.9865C7.45557 11.9865 7.61121 12.0736 7.76685 12.2915L10.668 16.0891L16.2585 7.1803C16.408 6.94373 16.5449 6.86279 16.7939 6.86279C17.1364 6.86279 17.3605 7.08691 17.3605 7.42932C17.3605 7.57251 17.3169 7.70947 17.2048 7.89001L11.3217 17.1537C11.1722 17.384 10.9606 17.5023 10.6929 17.5023Z" fill="white" fill-opacity="0.7"/>
</svg>
