<svg width="18" height="18" viewBox="0 0 18 18" fill="none" xmlns="http://www.w3.org/2000/svg">
    <path d="M9 17.4668C7.83236 17.4668 6.73665 17.2454 5.71289 16.8027C4.68913 16.3656 3.78988 15.7596 3.01514 14.9849C2.2404 14.2046 1.63167 13.3053 1.18896 12.2871C0.75179 11.2633 0.533203 10.1676 0.533203 9C0.533203 7.83236 0.75179 6.73665 1.18896 5.71289C1.63167 4.68913 2.2404 3.78988 3.01514 3.01514C3.78988 2.2404 4.68913 1.63444 5.71289 1.19727C6.73665 0.754557 7.83236 0.533203 9 0.533203C10.1676 0.533203 11.2633 0.754557 12.2871 1.19727C13.3109 1.63444 14.2101 2.2404 14.9849 3.01514C15.7596 3.78988 16.3656 4.68913 16.8027 5.71289C17.2454 6.73665 17.4668 7.83236 17.4668 9C17.4668 10.1676 17.2454 11.2633 16.8027 12.2871C16.3656 13.3053 15.7596 14.2046 14.9849 14.9849C14.2101 15.7596 13.3109 16.3656 12.2871 16.8027C11.2633 17.2454 10.1676 17.4668 9 17.4668ZM6.21094 12.4863C6.41016 12.4863 6.57894 12.4199 6.71729 12.2871L9.0083 9.97949L11.3076 12.2871C11.4349 12.4199 11.5981 12.4863 11.7974 12.4863C11.991 12.4863 12.1543 12.4199 12.2871 12.2871C12.4199 12.1488 12.4863 11.9855 12.4863 11.7974C12.4863 11.5926 12.4199 11.4294 12.2871 11.3076L9.97949 9.0083L12.2954 6.70068C12.4282 6.56234 12.4946 6.39909 12.4946 6.21094C12.4946 6.02279 12.4282 5.8623 12.2954 5.72949C12.1626 5.59668 12.0021 5.53027 11.814 5.53027C11.6313 5.53027 11.4736 5.59668 11.3408 5.72949L9.0083 8.04541L6.69238 5.73779C6.55404 5.61051 6.39355 5.54688 6.21094 5.54688C6.02279 5.54688 5.8623 5.61328 5.72949 5.74609C5.59668 5.87337 5.53027 6.03385 5.53027 6.22754C5.53027 6.41016 5.59668 6.57064 5.72949 6.70898L8.03711 9.0083L5.72949 11.3159C5.59668 11.4487 5.53027 11.6092 5.53027 11.7974C5.53027 11.9855 5.59668 12.1488 5.72949 12.2871C5.8623 12.4199 6.02279 12.4863 6.21094 12.4863Z"
          fill="white" fill-opacity="0.5"/>
</svg>
