<svg width="124" height="124" viewBox="0 0 124 124" fill="none" xmlns="http://www.w3.org/2000/svg">
    <rect width="124" height="124" rx="12" fill="black"/>
    <path d="M62.0391 65.3555C60.8542 65.3555 59.7474 65.0299 58.7188 64.3789C57.7031 63.7148 56.8828 62.8294 56.2578 61.7227C55.6328 60.6029 55.3203 59.3529 55.3203 57.9727C55.3203 56.6055 55.6328 55.375 56.2578 54.2812C56.8828 53.1875 57.7031 52.3281 58.7188 51.7031C59.7474 51.0651 60.8542 50.7461 62.0391 50.7461C63.237 50.7461 64.3438 51.0586 65.3594 51.6836C66.388 52.2956 67.2148 53.1419 67.8398 54.2227C68.4648 55.3034 68.7773 56.5404 68.7773 57.9336C68.7773 59.3138 68.4648 60.5703 67.8398 61.7031C67.2148 62.8229 66.388 63.7148 65.3594 64.3789C64.3438 65.0299 63.237 65.3555 62.0391 65.3555ZM52.0391 80.1406C50.5938 80.1406 49.6042 79.9453 49.0703 79.5547C48.5495 79.1641 48.2891 78.6042 48.2891 77.875C48.2891 76.8203 48.6016 75.7135 49.2266 74.5547C49.8646 73.3828 50.7826 72.2891 51.9805 71.2734C53.1784 70.2578 54.6237 69.431 56.3164 68.793C58.0091 68.1549 59.9167 67.8359 62.0391 67.8359C64.1745 67.8359 66.0885 68.1549 67.7812 68.793C69.474 69.431 70.9193 70.2578 72.1172 71.2734C73.3151 72.2891 74.2266 73.3828 74.8516 74.5547C75.4896 75.7135 75.8086 76.8203 75.8086 77.875C75.8086 78.6042 75.5417 79.1641 75.0078 79.5547C74.474 79.9453 73.4844 80.1406 72.0391 80.1406H52.0391ZM40.4375 46.1172C40.138 46.1172 39.8776 46.013 39.6562 45.8047C39.4479 45.5833 39.3438 45.3229 39.3438 45.0234C39.3438 44.724 39.4479 44.4701 39.6562 44.2617C39.8776 44.0404 40.138 43.9297 40.4375 43.9297C40.737 43.9297 40.9909 44.0404 41.1992 44.2617C41.4206 44.4701 41.5312 44.724 41.5312 45.0234C41.5312 45.3229 41.4206 45.5833 41.1992 45.8047C40.9909 46.013 40.737 46.1172 40.4375 46.1172ZM46.5898 46.1172C46.2904 46.1172 46.0299 46.013 45.8086 45.8047C45.6003 45.5833 45.4961 45.3229 45.4961 45.0234C45.4961 44.724 45.6003 44.4701 45.8086 44.2617C46.0299 44.0404 46.2904 43.9297 46.5898 43.9297C46.8893 43.9297 47.1432 44.0404 47.3516 44.2617C47.5729 44.4701 47.6836 44.724 47.6836 45.0234C47.6836 45.3229 47.5729 45.5833 47.3516 45.8047C47.1432 46.013 46.8893 46.1172 46.5898 46.1172ZM52.7422 46.1172C52.4427 46.1172 52.1823 46.013 51.9609 45.8047C51.7526 45.5833 51.6484 45.3229 51.6484 45.0234C51.6484 44.724 51.7526 44.4701 51.9609 44.2617C52.1823 44.0404 52.4427 43.9297 52.7422 43.9297C53.0417 43.9297 53.2956 44.0404 53.5039 44.2617C53.7253 44.4701 53.8359 44.724 53.8359 45.0234C53.8359 45.3229 53.7253 45.5833 53.5039 45.8047C53.2956 46.013 53.0417 46.1172 52.7422 46.1172ZM58.9141 46.6055C58.4714 46.6055 58.0938 46.4492 57.7812 46.1367C57.4688 45.8242 57.3125 45.4531 57.3125 45.0234C57.3125 44.5807 57.4688 44.2031 57.7812 43.8906C58.0938 43.5781 58.4714 43.4219 58.9141 43.4219C59.3438 43.4219 59.7148 43.5781 60.0273 43.8906C60.3398 44.2031 60.4961 44.5807 60.4961 45.0234C60.4961 45.4531 60.3398 45.8242 60.0273 46.1367C59.7148 46.4492 59.3438 46.6055 58.9141 46.6055ZM65.0664 46.6055C64.6237 46.6055 64.2461 46.4492 63.9336 46.1367C63.6211 45.8242 63.4648 45.4531 63.4648 45.0234C63.4648 44.5807 63.6211 44.2031 63.9336 43.8906C64.2461 43.5781 64.6237 43.4219 65.0664 43.4219C65.4961 43.4219 65.8672 43.5781 66.1797 43.8906C66.4922 44.2031 66.6484 44.5807 66.6484 45.0234C66.6484 45.4531 66.4922 45.8242 66.1797 46.1367C65.8672 46.4492 65.4961 46.6055 65.0664 46.6055ZM71.2383 46.1172C70.9388 46.1172 70.6784 46.013 70.457 45.8047C70.2487 45.5833 70.1445 45.3229 70.1445 45.0234C70.1445 44.724 70.2487 44.4701 70.457 44.2617C70.6784 44.0404 70.9388 43.9297 71.2383 43.9297C71.5378 43.9297 71.7917 44.0404 72 44.2617C72.2214 44.4701 72.332 44.724 72.332 45.0234C72.332 45.3229 72.2214 45.5833 72 45.8047C71.7917 46.013 71.5378 46.1172 71.2383 46.1172ZM77.4102 46.1172C77.1107 46.1172 76.8503 46.013 76.6289 45.8047C76.4076 45.5833 76.2969 45.3229 76.2969 45.0234C76.2969 44.724 76.4076 44.4701 76.6289 44.2617C76.8503 44.0404 77.1107 43.9297 77.4102 43.9297C77.7096 43.9297 77.9635 44.0404 78.1719 44.2617C78.3932 44.4701 78.5039 44.724 78.5039 45.0234C78.5039 45.3229 78.3932 45.5833 78.1719 45.8047C77.9635 46.013 77.7096 46.1172 77.4102 46.1172ZM83.5625 46.1172C83.263 46.1172 83.0026 46.013 82.7812 45.8047C82.5729 45.5833 82.4688 45.3229 82.4688 45.0234C82.4688 44.724 82.5729 44.4701 82.7812 44.2617C83.0026 44.0404 83.263 43.9297 83.5625 43.9297C83.862 43.9297 84.1159 44.0404 84.3242 44.2617C84.5456 44.4701 84.6562 44.724 84.6562 45.0234C84.6562 45.3229 84.5456 45.5833 84.3242 45.8047C84.1159 46.013 83.862 46.1172 83.5625 46.1172ZM40.4375 52.8555C40.138 52.8555 39.8776 52.7448 39.6562 52.5234C39.4479 52.3021 39.3438 52.0417 39.3438 51.7422C39.3438 51.4427 39.4479 51.1888 39.6562 50.9805C39.8776 50.7591 40.138 50.6484 40.4375 50.6484C40.737 50.6484 40.9909 50.7591 41.1992 50.9805C41.4206 51.1888 41.5312 51.4427 41.5312 51.7422C41.5312 52.0417 41.4206 52.3021 41.1992 52.5234C40.9909 52.7448 40.737 52.8555 40.4375 52.8555ZM46.5898 53.3438C46.1471 53.3438 45.7695 53.1875 45.457 52.875C45.1445 52.5625 44.9883 52.1849 44.9883 51.7422C44.9883 51.3125 45.1445 50.9414 45.457 50.6289C45.7695 50.3164 46.1471 50.1602 46.5898 50.1602C47.0195 50.1602 47.3906 50.3164 47.7031 50.6289C48.0286 50.9414 48.1914 51.3125 48.1914 51.7422C48.1914 52.1849 48.0286 52.5625 47.7031 52.875C47.3906 53.1875 47.0195 53.3438 46.5898 53.3438ZM52.7422 53.3438C52.3125 53.3438 51.9414 53.1875 51.6289 52.875C51.3164 52.5625 51.1602 52.1849 51.1602 51.7422C51.1602 51.3125 51.3164 50.9414 51.6289 50.6289C51.9414 50.3164 52.3125 50.1602 52.7422 50.1602C53.1849 50.1602 53.5625 50.3164 53.875 50.6289C54.1875 50.9414 54.3438 51.3125 54.3438 51.7422C53.9922 52.237 53.6992 52.7122 53.4648 53.168C53.2044 53.2852 52.9635 53.3438 52.7422 53.3438ZM71.2383 53.3438C71.0299 53.3438 70.8477 53.3112 70.6914 53.2461C70.4049 52.6732 70.0599 52.1133 69.6562 51.5664C69.6953 51.1758 69.8646 50.8438 70.1641 50.5703C70.4766 50.2969 70.8346 50.1602 71.2383 50.1602C71.681 50.1602 72.0586 50.3164 72.3711 50.6289C72.6836 50.9414 72.8398 51.3125 72.8398 51.7422C72.8398 52.1849 72.6836 52.5625 72.3711 52.875C72.0586 53.1875 71.681 53.3438 71.2383 53.3438ZM77.4102 53.3438C76.9674 53.3438 76.5898 53.1875 76.2773 52.875C75.9648 52.5625 75.8086 52.1849 75.8086 51.7422C75.8086 51.3125 75.9648 50.9414 76.2773 50.6289C76.5898 50.3164 76.9674 50.1602 77.4102 50.1602C77.8398 50.1602 78.2109 50.3164 78.5234 50.6289C78.8359 50.9414 78.9922 51.3125 78.9922 51.7422C78.9922 52.1849 78.8359 52.5625 78.5234 52.875C78.2109 53.1875 77.8398 53.3438 77.4102 53.3438ZM83.5625 52.8555C83.263 52.8555 83.0026 52.7448 82.7812 52.5234C82.5729 52.3021 82.4688 52.0417 82.4688 51.7422C82.4688 51.4427 82.5729 51.1888 82.7812 50.9805C83.0026 50.7591 83.263 50.6484 83.5625 50.6484C83.862 50.6484 84.1159 50.7591 84.3242 50.9805C84.5456 51.1888 84.6562 51.4427 84.6562 51.7422C84.6562 52.0417 84.5456 52.3021 84.3242 52.5234C84.1159 52.7448 83.862 52.8555 83.5625 52.8555ZM40.4375 60.082C39.9948 60.082 39.6172 59.9258 39.3047 59.6133C38.9922 59.3008 38.8359 58.9232 38.8359 58.4805C38.8359 58.0378 38.9922 57.6602 39.3047 57.3477C39.6172 57.0352 39.9948 56.8789 40.4375 56.8789C40.8672 56.8789 41.2383 57.0352 41.5508 57.3477C41.8633 57.6602 42.0195 58.0378 42.0195 58.4805C42.0195 58.9232 41.8633 59.3008 41.5508 59.6133C41.2383 59.9258 40.8672 60.082 40.4375 60.082ZM46.5898 60.5703C46.0169 60.5703 45.5221 60.3685 45.1055 59.9648C44.7018 59.5482 44.5 59.0534 44.5 58.4805C44.5 57.9076 44.7018 57.4193 45.1055 57.0156C45.5221 56.599 46.0169 56.3906 46.5898 56.3906C47.1628 56.3906 47.651 56.599 48.0547 57.0156C48.4714 57.4193 48.6797 57.9076 48.6797 58.4805C48.6797 59.0534 48.4714 59.5482 48.0547 59.9648C47.651 60.3685 47.1628 60.5703 46.5898 60.5703ZM50.6523 58.4805C50.6523 57.9596 50.8216 57.5039 51.1602 57.1133C51.5117 56.7227 51.9414 56.4883 52.4492 56.4102C52.4102 56.6576 52.3776 56.9115 52.3516 57.1719C52.3385 57.4323 52.332 57.6992 52.332 57.9727C52.332 58.9102 52.4362 59.776 52.6445 60.5703C52.0977 60.5443 51.6289 60.3294 51.2383 59.9258C50.8477 59.5221 50.6523 59.0404 50.6523 58.4805ZM73.3477 58.4805C73.3477 59.0143 73.1589 59.4831 72.7812 59.8867C72.4167 60.2773 71.974 60.5052 71.4531 60.5703C71.6615 59.763 71.7656 58.8841 71.7656 57.9336C71.7656 57.3607 71.7331 56.8594 71.668 56.4297C72.1367 56.5339 72.5339 56.7812 72.8594 57.1719C73.1849 57.5495 73.3477 57.9857 73.3477 58.4805ZM77.4102 60.5703C76.8372 60.5703 76.3424 60.3685 75.9258 59.9648C75.5091 59.5482 75.3008 59.0534 75.3008 58.4805C75.3008 57.9076 75.5091 57.4193 75.9258 57.0156C76.3424 56.599 76.8372 56.3906 77.4102 56.3906C77.9831 56.3906 78.4714 56.599 78.875 57.0156C79.2917 57.4193 79.5 57.9076 79.5 58.4805C79.5 59.0534 79.2917 59.5482 78.875 59.9648C78.4714 60.3685 77.9831 60.5703 77.4102 60.5703ZM83.5625 60.082C83.1198 60.082 82.7422 59.9258 82.4297 59.6133C82.1172 59.3008 81.9609 58.9232 81.9609 58.4805C81.9609 58.0378 82.1172 57.6602 82.4297 57.3477C82.7422 57.0352 83.1198 56.8789 83.5625 56.8789C83.9922 56.8789 84.3633 57.0352 84.6758 57.3477C85.0013 57.6602 85.1641 58.0378 85.1641 58.4805C85.1641 58.9232 85.0013 59.3008 84.6758 59.6133C84.3633 59.9258 83.9922 60.082 83.5625 60.082ZM40.4375 66.8008C39.9948 66.8008 39.6172 66.6445 39.3047 66.332C38.9922 66.0195 38.8359 65.6484 38.8359 65.2188C38.8359 64.776 38.9922 64.3984 39.3047 64.0859C39.6172 63.7734 39.9948 63.6172 40.4375 63.6172C40.8672 63.6172 41.2383 63.7734 41.5508 64.0859C41.8633 64.3984 42.0195 64.776 42.0195 65.2188C42.0195 65.6484 41.8633 66.0195 41.5508 66.332C41.2383 66.6445 40.8672 66.8008 40.4375 66.8008ZM46.5898 67.3086C46.0169 67.3086 45.5221 67.1068 45.1055 66.7031C44.7018 66.2865 44.5 65.7917 44.5 65.2188C44.5 64.6458 44.7018 64.151 45.1055 63.7344C45.5221 63.3177 46.0169 63.1094 46.5898 63.1094C47.1628 63.1094 47.651 63.3177 48.0547 63.7344C48.4714 64.151 48.6797 64.6458 48.6797 65.2188C48.6797 65.7917 48.4714 66.2865 48.0547 66.7031C47.651 67.1068 47.1628 67.3086 46.5898 67.3086ZM51.8438 67.1133C51.4922 66.931 51.2057 66.6706 50.9844 66.332C50.763 65.9935 50.6523 65.6224 50.6523 65.2188C50.6523 64.6458 50.8542 64.151 51.2578 63.7344C51.6745 63.3177 52.1693 63.1094 52.7422 63.1094C53.4062 63.1094 53.9401 63.3698 54.3438 63.8906C54.7604 64.4115 54.9102 64.9909 54.793 65.6289C54.2721 65.8503 53.7643 66.0846 53.2695 66.332C52.7747 66.5664 52.2995 66.8268 51.8438 67.1133ZM72.2148 67.0547C71.7461 66.7812 71.2578 66.5208 70.75 66.2734C70.2552 66.026 69.7409 65.8047 69.207 65.6094C69.0768 64.9583 69.2201 64.3789 69.6367 63.8711C70.0534 63.3633 70.5872 63.1094 71.2383 63.1094C71.8112 63.1094 72.306 63.3177 72.7227 63.7344C73.1393 64.151 73.3477 64.6458 73.3477 65.2188C73.3477 65.6094 73.237 65.974 73.0156 66.3125C72.8073 66.638 72.5404 66.8854 72.2148 67.0547ZM77.4102 67.3086C76.8372 67.3086 76.3424 67.1068 75.9258 66.7031C75.5091 66.2865 75.3008 65.7917 75.3008 65.2188C75.3008 64.6458 75.5091 64.151 75.9258 63.7344C76.3424 63.3177 76.8372 63.1094 77.4102 63.1094C77.9831 63.1094 78.4714 63.3177 78.875 63.7344C79.2917 64.151 79.5 64.6458 79.5 65.2188C79.5 65.7917 79.2917 66.2865 78.875 66.7031C78.4714 67.1068 77.9831 67.3086 77.4102 67.3086ZM83.5625 66.8008C83.1198 66.8008 82.7422 66.6445 82.4297 66.332C82.1172 66.0195 81.9609 65.6484 81.9609 65.2188C81.9609 64.776 82.1172 64.3984 82.4297 64.0859C82.7422 63.7734 83.1198 63.6172 83.5625 63.6172C83.9922 63.6172 84.3633 63.7734 84.6758 64.0859C85.0013 64.3984 85.1641 64.776 85.1641 65.2188C85.1641 65.6484 85.0013 66.0195 84.6758 66.332C84.3633 66.6445 83.9922 66.8008 83.5625 66.8008ZM40.4375 73.0312C40.138 73.0312 39.8776 72.9271 39.6562 72.7188C39.4479 72.4974 39.3438 72.237 39.3438 71.9375C39.3438 71.638 39.4479 71.3841 39.6562 71.1758C39.8776 70.9544 40.138 70.8438 40.4375 70.8438C40.737 70.8438 40.9909 70.9544 41.1992 71.1758C41.4206 71.3841 41.5312 71.638 41.5312 71.9375C41.5312 72.237 41.4206 72.4974 41.1992 72.7188C40.9909 72.9271 40.737 73.0312 40.4375 73.0312ZM45.9062 73.3633C45.2943 73.0898 44.9883 72.6146 44.9883 71.9375C44.9883 71.5078 45.1445 71.1367 45.457 70.8242C45.7695 70.5117 46.1471 70.3555 46.5898 70.3555C46.9674 70.3555 47.306 70.4792 47.6055 70.7266C46.9414 71.5729 46.375 72.4518 45.9062 73.3633ZM78.1719 73.3438C77.6771 72.3802 77.0977 71.4883 76.4336 70.668C76.7331 70.4596 77.0586 70.3555 77.4102 70.3555C77.8398 70.3555 78.2109 70.5117 78.5234 70.8242C78.8359 71.1367 78.9922 71.5078 78.9922 71.9375C78.9922 72.5495 78.7188 73.0182 78.1719 73.3438ZM83.5625 73.0312C83.263 73.0312 83.0026 72.9271 82.7812 72.7188C82.5729 72.4974 82.4688 72.237 82.4688 71.9375C82.4688 71.638 82.5729 71.3841 82.7812 71.1758C83.0026 70.9544 83.263 70.8438 83.5625 70.8438C83.862 70.8438 84.1159 70.9544 84.3242 71.1758C84.5456 71.3841 84.6562 71.638 84.6562 71.9375C84.6562 72.237 84.5456 72.4974 84.3242 72.7188C84.1159 72.9271 83.862 73.0312 83.5625 73.0312ZM40.4375 79.7695C40.138 79.7695 39.8776 79.6589 39.6562 79.4375C39.4479 79.2292 39.3438 78.9753 39.3438 78.6758C39.3438 78.3763 39.4479 78.1159 39.6562 77.8945C39.8776 77.6862 40.138 77.582 40.4375 77.582C40.737 77.582 40.9909 77.6862 41.1992 77.8945C41.4206 78.1159 41.5312 78.3763 41.5312 78.6758C41.5312 78.9753 41.4206 79.2292 41.1992 79.4375C40.9909 79.6589 40.737 79.7695 40.4375 79.7695ZM83.5625 79.7695C83.263 79.7695 83.0026 79.6589 82.7812 79.4375C82.5729 79.2292 82.4688 78.9753 82.4688 78.6758C82.4688 78.3763 82.5729 78.1159 82.7812 77.8945C83.0026 77.6862 83.263 77.582 83.5625 77.582C83.862 77.582 84.1159 77.6862 84.3242 77.8945C84.5456 78.1159 84.6562 78.3763 84.6562 78.6758C84.6562 78.9753 84.5456 79.2292 84.3242 79.4375C84.1159 79.6589 83.862 79.7695 83.5625 79.7695Z"
          fill="white" fill-opacity="0.2"/>
</svg>
