<svg width="19" height="17" viewBox="0 0 19 17" fill="none" xmlns="http://www.w3.org/2000/svg">
    <path d="M3.06689 16.3511C1.65576 16.3511 0.800781 15.3716 0.800781 14.1016C0.800781 13.7114 0.900391 13.313 1.12451 12.9395L7.56592 1.7168C7.98926 0.961426 8.73633 0.57959 9.5 0.57959C10.2637 0.57959 11.0024 0.961426 11.4341 1.7168L17.8755 12.9395C18.083 13.3047 18.1992 13.7114 18.1992 14.1016C18.1992 15.3716 17.3442 16.3511 15.9331 16.3511H3.06689ZM9.5083 10.8062C9.91504 10.8062 10.1558 10.5654 10.1641 10.1172L10.2886 5.60986C10.2969 5.16992 9.94824 4.84619 9.5 4.84619C9.03516 4.84619 8.71143 5.16162 8.71973 5.60156L8.82764 10.1172C8.83594 10.5571 9.07666 10.8062 9.5083 10.8062ZM9.5083 13.5869C9.99805 13.5869 10.4297 13.1968 10.4297 12.6987C10.4297 12.1924 10.0063 11.8022 9.5083 11.8022C9.00195 11.8022 8.57861 12.2007 8.57861 12.6987C8.57861 13.1885 9.01025 13.5869 9.5083 13.5869Z"
          fill="#FFF45C"/>
</svg>
